<svg width="1227" height="177" viewBox="0 0 1227 177" fill="none" xmlns="http://www.w3.org/2000/svg">
<path d="M637.715 24.141H710.836V175.061H735.979V24.141H809.1V1.93945H637.715V24.141Z" fill="white"/>
<path d="M97.3108 0H95.1528C34.2771 0 0 31.4394 0 87.2751V89.7249C0 145.561 34.2771 177 95.1528 177H97.3108C145.991 177 182.176 154.339 182.176 118.97V117.745H154.623V118.97C154.623 143.111 127.071 155.768 97.3108 155.768H95.1528C50.3366 155.768 27.0503 133.311 27.0503 89.6739V87.224C27.0503 43.8417 50.2865 21.1298 95.1528 21.1298H97.3108C127.021 21.1298 154.623 33.7872 154.623 57.9282V59.1531H182.176V57.9282C182.226 22.6609 145.991 0 97.3108 0Z" fill="white"/>
<path d="M527.205 2.53469e-05H525.047C464.171 2.53469e-05 429.844 31.4395 429.844 87.2751V89.7249C429.844 145.561 464.121 177 525.047 177H527.205C575.885 177 612.07 154.339 612.07 118.97V117.745H584.517V118.97C584.517 143.111 556.965 155.768 527.205 155.768H525.047C480.231 155.768 456.944 133.311 456.944 89.6739V87.2241C456.944 43.8417 480.181 21.1298 525.047 21.1298H527.205C556.915 21.1298 584.517 33.7872 584.517 57.9282V59.1531H612.07V57.9282C612.07 22.5589 575.885 -0.102051 527.205 -0.102051V2.53469e-05Z" fill="white"/>
<path d="M1179.77 81.2016L1126.08 73.1375C1102.59 69.718 1094.41 62.4195 1094.41 49.5069V47.8227C1094.41 32.4602 1108.31 21.2318 1143.09 21.2318H1146.9C1181.43 21.2318 1195.33 34.6548 1195.33 48.5372V49.7621H1221.93V48.5372C1221.93 20.5173 1197.49 0 1147.15 0H1143.34C1093.45 0 1069.27 20.2621 1069.27 47.5675V50.0173C1069.27 75.5874 1085.58 90.4905 1116.99 95.1349L1170.44 102.944C1192.97 106.108 1201.86 112.692 1201.86 126.83V128.514C1201.86 144.131 1187.25 155.819 1149.81 155.819H1146C1103.09 155.819 1089.64 141.937 1089.64 123.614V122.389H1062.54V123.614C1062.54 155.309 1084.37 177 1145.75 177H1149.36C1203.31 177 1227.05 156.993 1227.05 128.003V125.554C1227.05 98.7587 1210.29 85.795 1179.83 81.2016H1179.77Z" fill="white"/>
<path d="M929.946 0.000366211H927.788C866.912 0.000366211 832.836 31.4398 832.836 87.2755V89.7253C832.836 145.561 866.862 177 927.788 177H929.946C990.37 177 1024.65 145.561 1024.65 89.7253V87.2755C1024.65 31.4398 990.37 0.000366211 929.946 0.000366211ZM997.898 118.817C997.697 125.554 994.134 132.138 986.556 137.038L928.741 171.897L870.877 136.987C863.198 131.985 859.685 125.299 859.585 118.46V58.541C859.685 51.5998 863.349 44.7607 871.328 39.759L928.741 5.15521L986.807 40.1673C994.234 45.067 997.647 51.5998 997.898 58.2348V118.817Z" fill="white"/>
<path d="M283.301 1.93945L207.52 175.061H233.917L254.142 128.514H359.935L380.16 175.061H406.558L330.827 1.93945H283.301ZM263.527 107.027L307.039 7.0943L350.55 107.027H263.477H263.527Z" fill="white"/>
</svg>
